<svg xmlns="http://www.w3.org/2000/svg" width="41" height="28" fill="none"><path fill="#fff" d="M.293 26.293a1 1 0 1 0 1.414 1.414L.293 26.293ZM41 1a1 1 0 0 0-1-1h-9a1 1 0 1 0 0 2h8v8a1 1 0 1 0 2 0V1ZM23.086 15.086l.707-.707-.707.707Zm-3.672-3.672-.707.707.707-.707ZM1 27l.707.707 15.586-15.586-.707-.707-.707-.707L.293 26.293 1 27Zm18.414-15.586-.707.707 3.672 3.672.707-.707.707-.707-3.672-3.672-.707.707Zm6.5 3.672.707.707L40.707 1.707 40 1l-.707-.707-14.086 14.086.707.707Zm-2.828 0-.707.707a3 3 0 0 0 4.242 0l-.707-.707-.707-.707a1 1 0 0 1-1.414 0l-.707.707Zm-6.5-3.672.707.707a1 1 0 0 1 1.414 0l.707-.707.707-.707a3 3 0 0 0-4.242 0l.707.707Z"/></svg>