<svg xmlns="http://www.w3.org/2000/svg" width="88" height="89" fill="none"><circle cx="44" cy="44.299" r="44" fill="#fff"/><path stroke="#1A56FF" stroke-linecap="round" stroke-linejoin="round" stroke-miterlimit="10" stroke-width="2" d="M44.1 27.3c-9.405 0-17.1 7.694-17.1 17.1 0 9.404 7.695 17.1 17.1 17.1 9.405 0 17.1-7.696 17.1-17.1 0-9.406-7.695-17.1-17.1-17.1Z"/><path stroke="#1A56FF" stroke-linejoin="round" stroke-miterlimit="10" stroke-width="2" d="M33.995 52.17c3.793 0 2.93 1.555 11.778 1.555 6.671 0 6.601-1.615 6.601-2.318 0-.772-.421-1.334-.421-1.334s1.474-.562 1.474-1.825c0-1.194-1.124-1.616-1.124-1.616s1.124-.561 1.124-1.755c0-1.264-1.264-1.686-1.264-1.686s.141-.913.141-1.474c0-.703-.721-1.205-1.985-1.205h-4.06c-1.554 0-2.603-.577-1.97-1.981.772-1.615 1.7-3.977.786-5.523-.562-.983-2.318-1.756-2.529 0-.421 4.425-3.654 5.197-5.2 7.023-1.335 1.615-1.946 3.59-3.35 3.59"/></svg>