<svg xmlns="http://www.w3.org/2000/svg" width="88" height="89" fill="none"><circle cx="44" cy="44.299" r="44" fill="#fff"/><path stroke="#1A56FF" stroke-linecap="round" stroke-linejoin="round" stroke-miterlimit="10" stroke-width="2" d="M40.988 59.132c1.01.184 2.111.367 3.212.367 8.626 0 15.6-6.974 15.6-15.6s-6.974-15.6-15.6-15.6c-1.101 0-2.202.092-3.212.367"/><path stroke="#1A56FF" stroke-linecap="round" stroke-linejoin="round" stroke-miterlimit="10" stroke-width="2" d="M47.412 59.132c1.01.184 2.11.367 3.212.367 8.626 0 15.6-6.974 15.6-15.6s-6.974-15.6-15.6-15.6c-1.102 0-2.203.092-3.212.367"/><path stroke="#1A56FF" stroke-linecap="round" stroke-linejoin="round" stroke-miterlimit="10" stroke-width="2" d="M37.777 28.3c-8.626 0-15.6 6.973-15.6 15.6 0 8.625 6.974 15.6 15.6 15.6s15.6-6.975 15.6-15.6c0-8.627-6.974-15.6-15.6-15.6Z"/><path fill="#1A56FF" d="M35.785 45.796v1.487h4.529v1.448h-4.53v2.568h-2v-2.568H32v-1.448h1.785v-1.487H32v-1.7h1.785V37.3H38c.941 0 1.752.065 2.432.193a6.007 6.007 0 0 1 1.862.657c.562.309.987.746 1.275 1.313.287.566.431 1.262.431 2.085 0 1.545-.523 2.64-1.568 3.283-1.046.644-2.523.966-4.432.966h-2.215Zm0-1.7h2.313c1.229 0 2.177-.18 2.843-.54.68-.36 1.02-1.03 1.02-2.008 0-.979-.34-1.648-1.02-2.009-.666-.36-1.614-.54-2.843-.54h-2.313v5.097Z"/></svg>