<svg xmlns="http://www.w3.org/2000/svg" width="56" height="56" fill="none"><g stroke="#fff" stroke-linecap="round" stroke-linejoin="round" stroke-width="3" clip-path="url(#a)"><path d="M30.5 31.242a6.409 6.409 0 1 0 0-12.818 6.409 6.409 0 0 0 0 12.819Z"/><path d="M46.31 31.242a3.526 3.526 0 0 0 .704 3.888l.128.129a4.273 4.273 0 0 1-1.387 6.973 4.273 4.273 0 0 1-4.659-.927l-.128-.129a3.525 3.525 0 0 0-3.888-.705 3.524 3.524 0 0 0-2.136 3.226v.363a4.273 4.273 0 1 1-8.546 0v-.192a3.525 3.525 0 0 0-2.307-3.226 3.525 3.525 0 0 0-3.888.705l-.128.128A4.273 4.273 0 0 1 13.1 40.09a4.273 4.273 0 0 1 .928-4.66l.128-.128a3.526 3.526 0 0 0 .705-3.888 3.525 3.525 0 0 0-3.226-2.136h-.363a4.273 4.273 0 0 1 0-8.546h.192a3.524 3.524 0 0 0 3.226-2.307 3.526 3.526 0 0 0-.705-3.888l-.128-.128a4.273 4.273 0 0 1 1.386-6.974 4.273 4.273 0 0 1 4.66.928l.128.128a3.525 3.525 0 0 0 3.888.705h.17a3.525 3.525 0 0 0 2.137-3.226v-.363a4.273 4.273 0 1 1 8.546 0v.192a3.526 3.526 0 0 0 2.136 3.226 3.525 3.525 0 0 0 3.888-.705l.129-.128a4.272 4.272 0 0 1 6.973 1.387 4.273 4.273 0 0 1-.928 4.659l-.128.128a3.526 3.526 0 0 0-.705 3.888v.171a3.526 3.526 0 0 0 3.226 2.137h.363a4.272 4.272 0 1 1 0 8.545h-.192a3.525 3.525 0 0 0-3.226 2.136Z"/></g><defs><clipPath id="a"><path fill="#fff" d="M0 0h56v56H0z"/></clipPath></defs></svg>