<svg xmlns="http://www.w3.org/2000/svg" width="88" height="89" fill="none"><circle cx="44" cy="44.299" r="44" fill="#fff"/><path fill="#1A56FF" d="M37.423 23.3a.84.84 0 0 0-.683.84v.84h-6.72a2.533 2.533 0 0 0-2.52 2.52v35.28a2.533 2.533 0 0 0 2.52 2.52h28.56a2.533 2.533 0 0 0 2.52-2.52V27.5a2.533 2.533 0 0 0-2.52-2.52h-6.72v-.84a.842.842 0 0 0-.84-.84H37.423Zm.997 1.68h11.76v5.04H38.42v-5.04Zm-8.4 1.68h6.72v1.68h-5.88v33.6h26.88v-33.6h-5.88v-1.68h6.72c.466 0 .84.373.84.84v35.28c0 .465-.374.84-.84.84H30.02a.837.837 0 0 1-.84-.84V27.5c0-.467.374-.84.84-.84Zm2.52 3.36h4.2v.84c0 .462.377.84.84.84h13.44c.463 0 .84-.378.84-.84v-.84h4.2v30.24H32.54V30.02Zm18.244 8.924-.473.709-6.825 10.579-4.515-4.043-.603-.551-1.13 1.234.63.577 5.198 4.699.735.656.525-.814 7.403-11.445.446-.682-1.391-.919Z"/></svg>